<svg width="124" height="124" viewBox="0 0 124 124" fill="none" xmlns="http://www.w3.org/2000/svg">
<path d="M0 0C68.4833 0 124 55.5167 124 124H0V0Z" fill="#FF6250"/>
<g clip-path="url(#clip0_1579_473)">
<path d="M85.5639 103.932L78.7967 107.304L72.4954 92.5938H53.281C52.1041 92.5938 50.9755 92.1262 50.1433 91.294C49.3111 90.4618 48.8435 89.3332 48.8435 88.1563V74.8438C48.8435 73.6669 49.3111 72.5382 50.1433 71.706C50.9755 70.8738 52.1041 70.4063 53.281 70.4063C54.4579 70.4063 55.5866 70.8738 56.4188 71.706C57.251 72.5382 57.7185 73.6669 57.7185 74.8438V83.7188H73.2498V79.2813H62.156V74.8438C62.156 72.49 61.221 70.2326 59.5566 68.5682C57.8922 66.9038 55.6348 65.9688 53.281 65.9688C50.9272 65.9688 48.6699 66.9038 47.0055 68.5682C45.3411 70.2326 44.406 72.49 44.406 74.8438V77.0625C40.6465 77.0604 36.9627 78.1197 33.7785 80.1185C30.5943 82.1173 28.0391 84.9744 26.4067 88.3611C24.7744 91.7478 24.1312 95.5265 24.5513 99.2625C24.9714 102.998 26.4376 106.54 28.7813 109.48C31.125 112.419 34.2509 114.638 37.7995 115.879C41.348 117.121 45.1751 117.336 48.8403 116.499C52.5055 115.662 55.86 113.807 58.5179 111.148C61.1758 108.49 63.029 105.134 63.8645 101.469H59.2939C58.4709 104.229 56.8967 106.706 54.747 108.623C52.5974 110.54 49.957 111.821 47.121 112.324C44.285 112.827 41.365 112.531 38.6874 111.47C36.0098 110.409 33.6801 108.624 31.9585 106.315C30.2369 104.005 29.1914 101.263 28.9387 98.394C28.686 95.5248 29.2361 92.6419 30.5275 90.0675C31.8189 87.493 33.8008 85.3283 36.2516 83.8153C38.7025 82.3024 41.5258 81.5007 44.406 81.5V88.1563C44.406 90.5101 45.3411 92.7674 47.0055 94.4318C48.6699 96.0962 50.9272 97.0313 53.281 97.0313H69.5667L76.5779 113.383L87.5607 107.881L85.5639 103.932ZM54.3904 63.75C52.8545 63.75 51.3531 63.2946 50.0761 62.4413C48.799 61.588 47.8037 60.3751 47.2159 58.9562C46.6282 57.5372 46.4744 55.9758 46.774 54.4694C47.0736 52.963 47.8133 51.5793 48.8993 50.4933C49.9853 49.4072 51.369 48.6676 52.8754 48.368C54.3818 48.0683 55.9432 48.2221 57.3622 48.8099C58.7812 49.3976 59.994 50.393 60.8473 51.67C61.7006 52.9471 62.156 54.4485 62.156 55.9844C62.156 58.044 61.3379 60.0192 59.8815 61.4755C58.4252 62.9318 56.45 63.75 54.3904 63.75ZM54.3904 52.6563C53.7322 52.6563 53.0887 52.8514 52.5414 53.2171C51.9941 53.5828 51.5675 54.1026 51.3156 54.7108C51.0637 55.3189 50.9978 55.9881 51.1262 56.6337C51.2547 57.2793 51.5716 57.8723 52.0371 58.3377C52.5025 58.8032 53.0955 59.1201 53.7411 59.2486C54.3867 59.377 55.0559 59.3111 55.664 59.0592C56.2722 58.8073 56.792 58.3807 57.1577 57.8334C57.5233 57.2861 57.7185 56.6426 57.7185 55.9844C57.7185 55.1017 57.3679 54.2552 56.7438 53.631C56.1196 53.0069 55.2731 52.6563 54.3904 52.6563Z" fill="black"/>
</g>
<defs>
<clipPath id="clip0_1579_473">
<rect width="71" height="71" fill="white" transform="translate(20 46)"/>
</clipPath>
</defs>
</svg>
