<svg width="125" height="125" viewBox="0 0 125 125" fill="none" xmlns="http://www.w3.org/2000/svg">
<path d="M0.666992 0.5H79.1885C104.306 0.5 124.667 20.8614 124.667 45.9785V124.5H46.1455C21.0284 124.5 0.666992 104.138 0.666992 79.0213V0.5Z" fill="#009379"/>
<path d="M87.6668 77.9168C89.4346 77.9168 90.9249 78.5334 92.1377 79.7668C93.3505 81.0001 93.9466 82.439 93.926 84.0834L69.1668 93.3334L47.5835 87.1668V59.4167H53.596L76.0118 67.7109C77.6152 68.3481 78.4168 69.4993 78.4168 71.1643C78.4168 72.1304 78.0674 72.9731 77.3685 73.6926C76.6696 74.412 75.7857 74.7923 74.7168 74.8334H66.0835L60.6877 72.7676L59.6702 75.6659L66.0835 77.9168H87.6668ZM75.3335 35.4592C77.5124 32.9309 80.2874 31.6667 83.6585 31.6667C86.4541 31.6667 88.818 32.6945 90.7502 34.7501C92.6824 36.8056 93.7102 39.1695 93.8335 41.8417C93.8335 43.959 92.8057 46.4873 90.7502 49.4268C88.6946 52.3662 86.6699 54.8226 84.676 56.7959C82.6821 58.7692 79.568 61.6984 75.3335 65.5834C71.058 61.6984 67.913 58.7692 65.8985 56.7959C63.8841 54.8226 61.8593 52.3662 59.8243 49.4268C57.7893 46.4873 56.7924 43.959 56.8335 41.8417C56.8335 39.0462 57.8305 36.6823 59.8243 34.7501C61.8182 32.8179 64.2232 31.7901 67.0393 31.6667C70.3282 31.6667 73.093 32.9309 75.3335 35.4592ZM29.0342 59.4167H41.4168V93.3334H29.0342V59.4167Z" fill="black"/>
</svg>
