<svg width="125" height="124" viewBox="0 0 125 124" fill="none" xmlns="http://www.w3.org/2000/svg">
<path d="M0.333496 62.0001C0.333496 27.7584 28.0919 0 62.3336 0C96.5753 0 124.334 27.7584 124.334 62.0001V124H0.333496V62.0001Z" fill="#F3AFA8"/>
<path d="M62.167 54.875C58.4207 54.875 55.417 57.8787 55.417 61.625C55.417 65.3713 58.4207 68.375 62.167 68.375C65.9132 68.375 68.917 65.3713 68.917 61.625C68.917 57.8787 65.9132 54.875 62.167 54.875ZM95.917 41.375V58.25H89.167V51.5H35.167V58.25H28.417V41.375H35.167V48.125H89.167V41.375H95.917ZM72.292 76.0025V115.625H65.542V98.75H58.792V115.625H52.042V76.0025C45.0557 72.3238 40.2295 65 40.2295 56.5625V54.875H46.9795V56.5625C46.9795 65 53.7295 71.75 62.167 71.75C70.6045 71.75 77.3545 65 77.3545 56.5625V54.875H84.1045V56.5625C84.1045 65 79.2782 72.3238 72.292 76.0025Z" fill="black"/>
</svg>
